<?xml version="1.0" encoding="UTF-8" standalone="no"?>
<!DOCTYPE svg PUBLIC "-//W3C//DTD SVG 1.1//EN" "http://www.w3.org/Graphics/SVG/1.1/DTD/svg11.dtd">
<svg xmlns="http://www.w3.org/2000/svg" version="1.1" viewBox="0.00 0.00 500.00 500.00">
<g stroke-width="2.00" fill="none" stroke-linecap="butt">
<path stroke="#7f8888" vector-effect="non-scaling-stroke" d="
  M 154.33 93.76
  A 7.23 7.23 0.0 0 0 147.10 86.53
  L 146.98 86.53
  A 7.23 7.23 0.0 0 0 139.75 93.76
  L 139.75 367.98
  A 7.23 7.23 0.0 0 0 146.98 375.21
  L 147.10 375.21
  A 7.23 7.23 0.0 0 0 154.33 367.98
  L 154.33 93.76"
/>
<path stroke="#616a6b" vector-effect="non-scaling-stroke" d="
  M 174.32 109.71
  L 174.24 126.30"
/>
<path stroke="#7f8888" vector-effect="non-scaling-stroke" d="
  M 174.24 126.30
  L 174.32 352.52"
/>
<path stroke="#616a6b" vector-effect="non-scaling-stroke" d="
  M 174.32 352.52
  Q 174.09 358.70 174.17 366.14
  Q 174.22 370.21 175.32 372.10
  C 177.80 376.34 185.02 376.11 187.38 371.95
  C 189.88 367.54 188.52 351.22 188.57 345.45"
/>
<path stroke="#7f8888" vector-effect="non-scaling-stroke" d="
  M 188.57 345.45
  Q 189.39 239.00 188.68 132.13"
/>
<path stroke="#616a6b" vector-effect="non-scaling-stroke" d="
  M 188.68 132.13
  L 188.71 114.76"
/>
<path stroke="#4e585c" vector-effect="non-scaling-stroke" d="
  M 188.71 114.76
  C 188.81 109.49 189.95 93.69 187.20 89.67
  C 183.80 84.68 175.12 86.05 174.22 92.25
  Q 173.68 95.92 174.32 109.71"
/>
<path stroke="#afb0a6" vector-effect="non-scaling-stroke" d="
  M 188.71 114.76
  Q 188.38 114.10 188.46 113.06
  A 0.02 0.02 0.0 0 0 188.43 113.04
  L 188.09 113.22
  Q 187.77 113.39 187.45 113.22
  Q 181.16 109.84 174.32 109.71"
/>
<path stroke="#e0dfd2" vector-effect="non-scaling-stroke" d="
  M 188.68 132.13
  Q 182.98 126.97 174.24 126.30"
/>
<path stroke="#e0dfd2" vector-effect="non-scaling-stroke" d="
  M 188.57 345.45
  Q 181.43 346.76 174.32 352.52"
/>
<path stroke="#0f2839" vector-effect="non-scaling-stroke" d="
  M 210.78 139.95
  L 210.78 147.82
  Q 210.78 148.46 211.36 148.18
  C 215.25 146.32 218.72 144.98 221.86 148.87
  A 0.76 0.76 0.0 0 0 223.21 148.39
  L 223.17 140.84"
/>
<path stroke="#2e5a7a" vector-effect="non-scaling-stroke" d="
  M 223.17 140.84
  Q 223.34 118.96 223.01 97.32
  C 222.97 94.51 223.44 91.52 221.75 89.20
  C 218.62 84.93 210.78 86.39 210.77 92.00
  Q 210.72 115.73 210.78 139.95"
/>
<path stroke="#3d7093" vector-effect="non-scaling-stroke" d="
  M 223.17 140.84
  C 218.60 138.25 215.69 135.61 210.78 139.95"
/>
<path stroke="#4e585c" vector-effect="non-scaling-stroke" d="
  M 236.50 208.52
  C 236.50 213.19 235.37 225.39 237.56 229.11
  C 240.00 233.24 248.20 232.65 248.45 226.65
  Q 249.02 212.84 248.70 198.55"
/>
<path stroke="#2e5a7a" vector-effect="non-scaling-stroke" d="
  M 248.70 198.55
  Q 248.80 146.92 248.74 94.81
  C 248.73 88.81 243.45 83.15 237.87 88.48
  Q 236.59 89.69 236.58 90.93
  Q 236.23 115.75 236.50 208.52"
/>
<path stroke="#7ca0b6" vector-effect="non-scaling-stroke" d="
  M 248.70 198.55
  Q 241.94 201.25 238.74 207.63
  Q 238.54 208.03 238.11 208.14
  L 236.50 208.52"
/>
<path stroke="#4e585c" vector-effect="non-scaling-stroke" d="
  M 267.7643 92.9187
  A 6.17 6.17 0.0 0 0 261.5836 86.7595
  L 260.9836 86.7606
  A 6.17 6.17 0.0 0 0 254.8244 92.9413
  L 254.8757 122.3413
  A 6.17 6.17 0.0 0 0 261.0564 128.5005
  L 261.6564 128.4994
  A 6.17 6.17 0.0 0 0 267.8156 122.3187
  L 267.7643 92.9187"
/>
<path stroke="#7f8888" vector-effect="non-scaling-stroke" d="
  M 280.29 108.84
  Q 287.30 109.06 294.93 109.48
  C 330.02 111.39 356.22 146.70 346.78 180.73
  Q 338.37 211.00 307.85 218.25"
/>
<path stroke="#4e585c" vector-effect="non-scaling-stroke" d="
  M 307.85 218.25
  Q 298.74 219.41 303.11 229.65
  A 1.31 1.30 -88.7 0 0 303.72 230.29
  Q 307.22 232.08 311.07 230.70"
/>
<path stroke="#7f8888" vector-effect="non-scaling-stroke" d="
  M 311.07 230.70
  Q 314.12 231.40 315.75 230.99
  C 343.61 223.98 362.11 198.29 363.17 170.29
  C 364.87 125.41 328.41 91.48 283.93 95.09"
/>
<path stroke="#4e585c" vector-effect="non-scaling-stroke" d="
  M 283.93 95.09
  C 280.56 94.30 272.69 94.95 272.75 100.00
  C 272.80 105.43 272.79 110.23 280.29 108.84"
/>
<path stroke="#cdcec3" vector-effect="non-scaling-stroke" d="
  M 283.93 95.09
  C 277.82 98.09 273.99 102.52 280.29 108.84"
/>
<path stroke="#cdcec3" vector-effect="non-scaling-stroke" d="
  M 311.07 230.70
  C 305.67 228.32 302.96 223.27 307.85 218.25"
/>
<path stroke="#2e5a7a" vector-effect="non-scaling-stroke" d="
  M 204.48 107.56
  C 197.60 103.88 193.80 108.36 193.77 115.00
  Q 193.71 134.13 193.77 153.25
  C 193.82 166.57 194.63 174.53 204.71 182.29
  Q 205.77 183.10 205.77 181.77
  L 205.72 109.61
  Q 205.72 108.21 204.48 107.56"
/>
<path stroke="#4e585c" vector-effect="non-scaling-stroke" d="
  M 255.05 133.33
  Q 254.75 133.21 254.75 133.53
  L 254.75 145.26
  A 0.77 0.77 0.0 0 0 255.53 146.03
  Q 273.29 145.91 290.56 146.07
  C 312.66 146.28 321.24 172.47 302.17 184.43
  Q 301.66 184.75 301.67 185.35
  L 302.00 200.71
  Q 302.01 201.25 302.53 201.12
  C 316.23 197.53 325.96 186.24 327.94 172.42
  C 330.61 153.75 318.20 133.66 298.02 132.33
  Q 284.87 131.46 271.68 132.36
  Q 269.98 132.48 267.67 133.52
  Q 261.73 136.19 255.05 133.33"
/>
<path stroke="#7f8888" vector-effect="non-scaling-stroke" d="
  M 223.07 156.76
  A 5.96 5.96 0.0 0 0 217.11 150.80
  L 216.91 150.80
  A 5.96 5.96 0.0 0 0 210.95 156.76
  L 210.95 250.36
  A 5.96 5.96 0.0 0 0 216.91 256.32
  L 217.11 256.32
  A 5.96 5.96 0.0 0 0 223.07 250.36
  L 223.07 156.76"
/>
<path stroke="#2e5a7a" vector-effect="non-scaling-stroke" d="
  M 267.3445 158.0991
  A 5.85 5.85 0.0 0 0 261.4843 152.2593
  L 260.6643 152.2608
  A 5.85 5.85 0.0 0 0 254.8245 158.1210
  L 254.9155 210.2609
  A 5.85 5.85 0.0 0 0 260.7757 216.1007
  L 261.5957 216.0992
  A 5.85 5.85 0.0 0 0 267.4355 210.2390
  L 267.3445 158.0991"
/>
<path stroke="#2e5a7a" vector-effect="non-scaling-stroke" d="
  M 281.43 186.12
  L 281.51 230.30"
/>
<path stroke="#7f8888" vector-effect="non-scaling-stroke" d="
  M 281.51 230.30
  C 281.50 242.82 282.00 255.36 281.19 267.47
  C 280.88 271.97 281.81 277.90 287.05 278.15
  C 292.01 278.38 293.39 274.70 293.51 270.27
  Q 293.75 261.25 293.70 252.24"
/>
<path stroke="#2e5a7a" vector-effect="non-scaling-stroke" d="
  M 293.70 252.24
  L 293.62 187.32"
/>
<path stroke="#0f2839" vector-effect="non-scaling-stroke" d="
  M 293.62 187.32
  Q 293.54 180.68 293.67 174.19
  C 293.87 164.84 281.53 164.19 281.31 174.25
  Q 281.19 180.06 281.43 186.12"
/>
<path stroke="#3d7093" vector-effect="non-scaling-stroke" d="
  M 293.62 187.32
  Q 288.86 179.90 281.43 186.12"
/>
<path stroke="#add0e2" vector-effect="non-scaling-stroke" d="
  M 293.70 252.24
  Q 293.72 245.61 289.31 239.44
  Q 285.09 233.53 281.51 230.30"
/>
<path stroke="#0f2839" vector-effect="non-scaling-stroke" d="
  M 319.91 234.18
  C 317.61 234.83 315.66 234.76 313.64 235.37
  Q 308.30 236.97 302.63 235.76
  A 0.52 0.52 0.0 0 0 302.00 236.27
  L 302.00 243.99
  Q 302.00 244.42 302.44 244.44
  L 308.01 244.70"
/>
<path stroke="#4e585c" vector-effect="non-scaling-stroke" d="
  M 308.01 244.70
  C 327.30 249.08 342.56 262.55 346.73 282.11
  Q 347.48 285.66 348.11 289.23"
/>
<path stroke="#7f8888" vector-effect="non-scaling-stroke" d="
  M 348.11 289.23
  Q 348.85 314.70 332.15 331.38
  C 321.57 341.96 310.16 346.15 295.25 346.20
  Q 275.27 346.28 255.27 346.24
  Q 254.75 346.24 254.75 346.76
  L 254.75 359.74
  Q 254.75 360.25 255.27 360.25
  Q 275.98 360.24 296.72 360.26
  Q 306.93 360.28 312.68 358.96
  C 351.13 350.15 371.39 307.41 358.88 270.86"
/>
<path stroke="#4e585c" vector-effect="non-scaling-stroke" d="
  M 358.88 270.86
  Q 353.22 253.73 337.95 242.04
  Q 328.72 234.98 319.91 234.18"
/>
<path stroke="#cdcec3" vector-effect="non-scaling-stroke" d="
  M 358.88 270.86
  Q 356.52 282.51 348.11 289.23"
/>
<path stroke="#5d6e74" vector-effect="non-scaling-stroke" d="
  M 308.01 244.70
  Q 311.93 238.69 319.91 234.18"
/>
<path stroke="#2e5a7a" vector-effect="non-scaling-stroke" d="
  M 239.56 237.44
  C 237.41 237.08 235.58 234.89 232.97 234.73
  Q 231.43 234.64 229.86 234.79
  Q 229.25 234.85 229.25 235.46
  L 229.25 246.24
  A 0.50 0.50 0.0 0 0 229.75 246.74
  Q 250.14 246.77 270.56 246.73
  C 278.34 246.72 277.17 235.23 272.06 234.86
  Q 263.91 234.25 249.67 235.13
  Q 249.17 235.16 248.76 235.44
  Q 244.64 238.28 239.56 237.44"
/>
<path stroke="#0f2839" vector-effect="non-scaling-stroke" d="
  M 194.02 347.36
  C 194.03 357.46 205.58 357.01 205.65 346.26
  Q 205.93 303.14 205.60 260.29
  A 0.91 0.91 0.0 0 0 204.40 259.44
  Q 194.22 262.95 194.17 273.75
  Q 193.97 310.56 194.02 347.36"
/>
<path stroke="#7f8888" vector-effect="non-scaling-stroke" d="
  M 248.73 265.90
  A 6.03 6.03 0.0 0 0 242.70 259.87
  L 242.54 259.87
  A 6.03 6.03 0.0 0 0 236.51 265.90
  L 236.51 369.22
  A 6.03 6.03 0.0 0 0 242.54 375.25
  L 242.70 375.25
  A 6.03 6.03 0.0 0 0 248.73 369.22
  L 248.73 265.90"
/>
<path stroke="#2e5a7a" vector-effect="non-scaling-stroke" d="
  M 266.96 279.07
  C 267.09 275.80 267.81 267.43 266.93 264.82
  C 265.62 260.94 261.81 258.69 257.97 260.63
  C 254.32 262.47 254.80 265.69 254.76 270.05
  Q 254.66 280.88 254.79 291.91
  Q 254.80 292.47 255.36 292.48
  Q 268.79 292.55 282.24 292.51
  C 289.30 292.50 294.39 290.95 293.38 282.74
  Q 293.33 282.32 292.94 282.49
  Q 284.30 286.10 277.28 280.04
  A 0.86 0.85 64.6 0 0 276.73 279.84
  L 267.65 279.80
  A 0.70 0.70 0.0 0 1 266.96 279.07"
/>
<path stroke="#4e585c" vector-effect="non-scaling-stroke" d="
  M 302.27 277.31
  C 314.96 285.57 315.97 304.90 300.73 311.03
  Q 297.04 312.51 289.05 312.64
  Q 272.19 312.92 255.78 312.68
  A 1.02 1.02 0.0 0 0 254.75 313.70
  L 254.75 326.45
  Q 254.75 327.04 255.34 327.06
  Q 272.02 327.44 288.69 327.19
  Q 299.77 327.02 305.11 325.29
  C 323.63 319.29 332.34 298.52 324.80 280.73
  Q 318.37 265.53 302.41 260.63
  Q 302.01 260.50 302.00 260.92
  L 301.89 276.61
  A 0.84 0.83 16.9 0 0 302.27 277.31"
/>
<path stroke="#2e5a7a" vector-effect="non-scaling-stroke" d="
  M 211.24 277.73
  C 209.85 294.37 210.75 311.86 210.76 328.60
  C 210.77 329.61 211.13 330.86 211.23 331.91"
/>
<path stroke="#0f2839" vector-effect="non-scaling-stroke" d="
  M 211.23 331.91
  L 211.00 332.26
  Q 210.77 332.59 210.77 333.00
  Q 210.71 350.13 210.78 367.28
  C 210.82 378.03 223.04 376.89 222.99 368.75
  Q 222.92 355.49 223.25 342.67"
/>
<path stroke="#2e5a7a" vector-effect="non-scaling-stroke" d="
  M 223.25 342.67
  L 223.20 267.21"
/>
<path stroke="#0f2839" vector-effect="non-scaling-stroke" d="
  M 223.20 267.21
  L 223.13 261.35
  A 0.39 0.38 75.8 0 0 222.57 261.01
  Q 217.12 263.84 211.54 261.45
  A 0.46 0.46 0.0 0 0 210.90 261.84
  Q 210.28 269.61 211.24 277.73"
/>
<path stroke="#3d7093" vector-effect="non-scaling-stroke" d="
  M 223.20 267.21
  Q 215.07 268.89 211.24 277.73"
/>
<path stroke="#3d7093" vector-effect="non-scaling-stroke" d="
  M 223.25 342.67
  Q 214.67 340.22 211.23 331.91"
/>
<path stroke="#0f2839" vector-effect="non-scaling-stroke" d="
  M 254.97 365.88
  C 253.95 373.48 260.04 376.23 266.53 376.05
  C 280.07 375.68 293.71 376.04 307.26 375.96
  Q 311.98 375.93 313.96 375.03
  C 317.95 373.21 320.88 366.38 316.13 363.64
  A 1.11 1.09 52.0 0 0 315.29 363.53
  Q 308.84 365.31 302.74 365.29
  Q 274.81 365.16 255.51 365.40
  Q 255.03 365.41 254.97 365.88"
/>
<path stroke="#616a6b" vector-effect="non-scaling-stroke" d="
  M 159.18 440.48
  Q 156.80 444.65 156.49 449.56"
/>
<path stroke="#808990" vector-effect="non-scaling-stroke" d="
  M 156.49 449.56
  Q 155.70 452.10 158.06 453.51
  A 1.37 1.37 0.0 0 0 159.97 453.00
  Q 164.05 445.67 169.38 439.34
  A 0.05 0.05 0.0 0 1 169.47 439.39
  C 167.54 444.31 161.66 455.72 167.67 460.24
  C 171.60 463.21 175.90 456.77 177.95 453.46
  Q 178.24 452.99 178.24 453.54
  C 178.19 459.12 181.84 462.54 186.32 457.78
  Q 190.20 453.65 192.45 449.64
  Q 194.85 445.37 193.18 449.98
  C 192.37 452.21 191.87 456.62 192.94 459.53
  C 196.39 468.92 203.32 458.20 205.40 455.03
  Q 205.96 454.18 206.03 455.20
  Q 206.20 457.75 208.65 457.76
  Q 209.28 457.76 209.61 457.23
  Q 216.38 446.19 225.45 436.92
  Q 225.85 436.51 225.69 437.06
  C 223.98 442.87 216.69 452.25 219.34 458.49
  C 220.50 461.20 224.59 464.39 227.34 461.28
  Q 230.73 457.44 233.71 452.49"
/>
<path stroke="#4e585c" vector-effect="non-scaling-stroke" d="
  M 233.71 452.49
  Q 232.68 456.55 233.89 458.53"
/>
<path stroke="#808990" vector-effect="non-scaling-stroke" d="
  M 233.89 458.53
  C 237.41 466.45 243.30 463.46 247.43 458.43
  Q 255.43 448.70 257.68 445.44
  Q 258.50 444.26 257.11 443.63
  A 0.61 0.60 31.2 0 0 256.39 443.80
  C 251.61 449.59 247.67 456.27 241.38 460.13
  A 1.68 1.68 0.0 0 1 238.85 458.41
  L 240.24 450.35
  Q 240.32 449.87 240.78 449.70
  Q 246.64 447.49 250.48 442.26
  C 252.89 438.98 252.26 435.16 247.98 434.21
  C 239.63 432.36 237.26 444.38 233.21 449.02
  Q 229.76 452.97 225.90 456.69
  A 0.79 0.79 0.0 0 1 224.59 455.94
  C 225.34 452.78 225.62 449.48 226.90 446.46
  Q 228.72 442.16 230.65 437.92
  C 232.40 434.09 228.72 430.40 225.29 433.67
  Q 217.97 440.64 212.55 449.02
  Q 211.97 449.93 212.16 448.87
  C 213.09 443.76 214.64 438.11 218.57 434.28
  C 227.92 425.16 234.65 415.49 237.61 402.39
  C 237.95 400.90 237.71 397.46 236.79 396.32
  C 234.22 393.11 229.14 397.03 227.22 399.49
  C 217.38 412.08 210.69 427.89 207.50 443.67
  C 206.18 450.22 203.55 454.30 198.92 458.63
  A 0.51 0.50 53.4 0 1 198.14 458.51
  L 197.97 458.23
  Q 197.79 457.92 197.81 457.57
  Q 198.14 450.13 201.26 443.43
  C 203.52 438.57 197.58 437.57 195.07 441.34
  A 0.40 0.40 0.0 0 1 194.35 441.19
  C 193.82 438.29 191.37 434.44 187.71 436.47
  C 183.73 438.69 182.82 440.66 180.83 444.29
  Q 177.00 451.30 170.52 457.24
  A 0.45 0.45 0.0 0 1 169.76 456.92
  C 169.52 449.93 175.04 444.92 174.50 437.76
  A 2.44 2.44 0.0 0 0 171.88 435.51
  C 167.98 435.81 163.27 443.51 162.00 446.21
  Q 160.81 448.74 161.55 446.04
  Q 162.60 442.26 164.31 438.08
  C 166.18 433.51 161.60 430.20 158.11 434.86
  Q 152.50 442.35 149.02 450.90
  A 0.28 0.27 -32.0 0 1 148.49 450.78
  Q 148.94 445.59 151.95 441.39
  Q 152.31 440.88 151.91 440.39
  L 149.57 437.60
  Q 149.10 437.03 148.69 437.65
  C 146.28 441.32 140.25 455.12 148.05 456.66
  Q 148.59 456.77 148.82 456.27
  C 152.10 449.01 155.37 442.51 160.19 436.15
  Q 160.30 436.00 160.49 436.00
  Q 160.63 436.00 160.78 435.99
  Q 161.07 435.97 160.96 436.24
  L 159.18 440.48"
/>
<path stroke="#cecfcb" vector-effect="non-scaling-stroke" d="
  M 233.89 458.53
  L 235.68 450.38
  A 0.21 0.21 0.0 0 0 235.28 450.28
  Q 234.79 451.93 233.71 452.49"
/>
<path stroke="#e1e0da" vector-effect="non-scaling-stroke" d="
  M 156.49 449.56
  Q 157.93 448.31 158.21 446.36"
/>
<path stroke="#cecfcb" vector-effect="non-scaling-stroke" d="
  M 158.21 446.36
  Q 158.95 445.13 158.95 443.76"
/>
<path stroke="#e1e0da" vector-effect="non-scaling-stroke" d="
  M 158.95 443.76
  Q 160.59 440.99 159.18 440.48"
/>
<path stroke="#afb0a6" vector-effect="non-scaling-stroke" d="
  M 158.95 443.76
  Q 157.95 444.37 158.21 446.36"
/>
<path stroke="#808990" vector-effect="non-scaling-stroke" d="
  M 274.40 450.26
  C 273.87 452.58 273.16 458.25 276.81 457.80
  Q 277.29 457.74 277.55 457.33
  Q 284.34 446.23 293.46 436.92
  Q 293.87 436.50 293.70 437.06
  C 291.67 443.51 281.11 457.43 291.05 462.22
  C 292.57 462.96 294.26 462.60 295.41 461.22
  Q 301.63 453.73 305.96 445.21
  A 0.52 0.51 -11.7 0 0 305.10 444.65
  Q 299.96 450.80 293.95 456.45
  Q 292.99 457.35 292.72 455.70
  A 1.15 0.90 -52.0 0 1 292.72 455.41
  Q 294.00 446.62 298.15 439.34
  C 300.50 435.23 297.61 429.53 293.05 433.90
  Q 285.95 440.70 280.33 449.37
  A 0.22 0.22 0.0 0 1 279.93 449.19
  C 281.10 444.92 282.31 438.79 285.49 435.50
  C 295.45 425.25 302.28 416.56 305.58 402.69
  C 305.96 401.11 305.76 397.49 304.75 396.27
  C 300.20 390.77 291.75 404.10 289.88 407.02
  C 282.67 418.24 278.01 430.55 275.22 445.49
  A 1.03 1.00 -10.7 0 1 274.73 446.19
  L 265.98 451.15
  Q 265.50 451.42 265.37 450.89
  C 264.23 446.07 262.52 439.80 264.43 437.41
  A 1.93 1.92 35.8 0 0 263.97 434.59
  C 260.98 432.66 257.99 437.60 257.90 439.95
  C 257.78 442.94 259.02 449.09 260.22 452.69
  A 1.64 1.63 -24.3 0 1 259.49 454.62
  C 256.46 456.37 249.03 461.27 249.30 465.20
  Q 249.61 469.76 254.82 470.52
  C 265.42 472.07 267.31 463.51 266.24 455.28
  A 0.61 0.61 0.0 0 1 266.51 454.69
  L 273.92 449.92
  Q 274.58 449.50 274.40 450.26"
/>
<path stroke="#808990" vector-effect="non-scaling-stroke" d="
  M 233.17 399.93
  Q 224.10 414.17 218.30 430.05
  Q 217.85 431.29 218.75 430.32
  Q 229.75 418.43 234.88 402.30
  Q 235.06 401.75 235.09 401.22
  Q 235.14 400.32 235.08 400.10
  Q 234.41 397.98 233.17 399.93"
/>
<path stroke="#808990" vector-effect="non-scaling-stroke" d="
  M 229.30 403.33
  C 223.11 414.76 218.46 422.84 216.17 432.16
  Q 215.76 433.82 216.35 432.21
  Q 221.60 418.12 229.35 404.29
  Q 229.64 403.77 229.48 403.34
  Q 229.41 403.14 229.30 403.33"
/>
<path stroke="#808990" vector-effect="non-scaling-stroke" d="
  M 246.71 436.58
  Q 243.57 440.95 241.76 446.04
  Q 241.52 446.70 242.13 446.34
  C 245.21 444.48 249.38 440.93 248.18 436.83
  A 0.83 0.83 0.0 0 0 246.71 436.58"
/>
<path stroke="#808990" vector-effect="non-scaling-stroke" d="
  M 190.77 438.68
  C 186.86 439.76 184.08 451.22 183.58 454.84
  A 0.62 0.61 -22.6 0 0 184.68 455.29
  L 192.37 445.20
  Q 192.70 444.77 192.59 444.24
  L 191.56 439.17
  A 0.63 0.63 0.0 0 0 190.77 438.68"
/>
<path stroke="#808990" vector-effect="non-scaling-stroke" d="
  M 301.37 399.65
  Q 292.22 413.95 286.35 429.90
  Q 285.82 431.33 286.85 430.21
  Q 297.78 418.33 302.91 402.12
  Q 303.11 401.49 303.14 400.93
  Q 303.19 400.00 303.02 399.71
  Q 302.22 398.33 301.37 399.65"
/>
<path stroke="#808990" vector-effect="non-scaling-stroke" d="
  M 297.49 402.75
  C 292.61 412.46 286.79 422.07 284.06 432.45
  Q 283.59 434.20 284.23 432.51
  Q 289.85 417.57 297.68 403.65
  Q 297.83 403.37 297.78 403.06
  Q 297.75 402.90 297.75 402.75
  Q 297.77 402.18 297.49 402.75"
/>
<path stroke="#808990" vector-effect="non-scaling-stroke" d="
  M 253.58 466.84
  C 258.68 467.44 260.73 462.45 260.54 458.12
  Q 260.52 457.65 260.11 457.88
  Q 255.63 460.39 252.56 464.42
  A 1.51 1.51 0.0 0 0 253.58 466.84"
/>
<path stroke="#cecfcb" vector-effect="non-scaling-stroke" d="
  M 260.96 468.81
  Q 262.26 468.45 263.46 466.43
  A 0.10 0.10 0.0 0 0 263.30 466.31
  Q 262.23 467.56 260.75 468.24
  Q 257.37 469.81 260.96 468.81"
/>
</g>
<path fill="#001220" d="
  M 0.00 0.00
  L 500.00 0.00
  L 500.00 500.00
  L 0.00 500.00
  L 0.00 0.00
  Z
  M 154.33 93.76
  A 7.23 7.23 0.0 0 0 147.10 86.53
  L 146.98 86.53
  A 7.23 7.23 0.0 0 0 139.75 93.76
  L 139.75 367.98
  A 7.23 7.23 0.0 0 0 146.98 375.21
  L 147.10 375.21
  A 7.23 7.23 0.0 0 0 154.33 367.98
  L 154.33 93.76
  Z
  M 174.32 109.71
  L 174.24 126.30
  L 174.32 352.52
  Q 174.09 358.70 174.17 366.14
  Q 174.22 370.21 175.32 372.10
  C 177.80 376.34 185.02 376.11 187.38 371.95
  C 189.88 367.54 188.52 351.22 188.57 345.45
  Q 189.39 239.00 188.68 132.13
  L 188.71 114.76
  C 188.81 109.49 189.95 93.69 187.20 89.67
  C 183.80 84.68 175.12 86.05 174.22 92.25
  Q 173.68 95.92 174.32 109.71
  Z
  M 210.78 139.95
  L 210.78 147.82
  Q 210.78 148.46 211.36 148.18
  C 215.25 146.32 218.72 144.98 221.86 148.87
  A 0.76 0.76 0.0 0 0 223.21 148.39
  L 223.17 140.84
  Q 223.34 118.96 223.01 97.32
  C 222.97 94.51 223.44 91.52 221.75 89.20
  C 218.62 84.93 210.78 86.39 210.77 92.00
  Q 210.72 115.73 210.78 139.95
  Z
  M 236.50 208.52
  C 236.50 213.19 235.37 225.39 237.56 229.11
  C 240.00 233.24 248.20 232.65 248.45 226.65
  Q 249.02 212.84 248.70 198.55
  Q 248.80 146.92 248.74 94.81
  C 248.73 88.81 243.45 83.15 237.87 88.48
  Q 236.59 89.69 236.58 90.93
  Q 236.23 115.75 236.50 208.52
  Z
  M 267.7643 92.9187
  A 6.17 6.17 0.0 0 0 261.5836 86.7595
  L 260.9836 86.7606
  A 6.17 6.17 0.0 0 0 254.8244 92.9413
  L 254.8757 122.3413
  A 6.17 6.17 0.0 0 0 261.0564 128.5005
  L 261.6564 128.4994
  A 6.17 6.17 0.0 0 0 267.8156 122.3187
  L 267.7643 92.9187
  Z
  M 280.29 108.84
  Q 287.30 109.06 294.93 109.48
  C 330.02 111.39 356.22 146.70 346.78 180.73
  Q 338.37 211.00 307.85 218.25
  Q 298.74 219.41 303.11 229.65
  A 1.31 1.30 -88.7 0 0 303.72 230.29
  Q 307.22 232.08 311.07 230.70
  Q 314.12 231.40 315.75 230.99
  C 343.61 223.98 362.11 198.29 363.17 170.29
  C 364.87 125.41 328.41 91.48 283.93 95.09
  C 280.56 94.30 272.69 94.95 272.75 100.00
  C 272.80 105.43 272.79 110.23 280.29 108.84
  Z
  M 204.48 107.56
  C 197.60 103.88 193.80 108.36 193.77 115.00
  Q 193.71 134.13 193.77 153.25
  C 193.82 166.57 194.63 174.53 204.71 182.29
  Q 205.77 183.10 205.77 181.77
  L 205.72 109.61
  Q 205.72 108.21 204.48 107.56
  Z
  M 255.05 133.33
  Q 254.75 133.21 254.75 133.53
  L 254.75 145.26
  A 0.77 0.77 0.0 0 0 255.53 146.03
  Q 273.29 145.91 290.56 146.07
  C 312.66 146.28 321.24 172.47 302.17 184.43
  Q 301.66 184.75 301.67 185.35
  L 302.00 200.71
  Q 302.01 201.25 302.53 201.12
  C 316.23 197.53 325.96 186.24 327.94 172.42
  C 330.61 153.75 318.20 133.66 298.02 132.33
  Q 284.87 131.46 271.68 132.36
  Q 269.98 132.48 267.67 133.52
  Q 261.73 136.19 255.05 133.33
  Z
  M 223.07 156.76
  A 5.96 5.96 0.0 0 0 217.11 150.80
  L 216.91 150.80
  A 5.96 5.96 0.0 0 0 210.95 156.76
  L 210.95 250.36
  A 5.96 5.96 0.0 0 0 216.91 256.32
  L 217.11 256.32
  A 5.96 5.96 0.0 0 0 223.07 250.36
  L 223.07 156.76
  Z
  M 267.3445 158.0991
  A 5.85 5.85 0.0 0 0 261.4843 152.2593
  L 260.6643 152.2608
  A 5.85 5.85 0.0 0 0 254.8245 158.1210
  L 254.9155 210.2609
  A 5.85 5.85 0.0 0 0 260.7757 216.1007
  L 261.5957 216.0992
  A 5.85 5.85 0.0 0 0 267.4355 210.2390
  L 267.3445 158.0991
  Z
  M 281.43 186.12
  L 281.51 230.30
  C 281.50 242.82 282.00 255.36 281.19 267.47
  C 280.88 271.97 281.81 277.90 287.05 278.15
  C 292.01 278.38 293.39 274.70 293.51 270.27
  Q 293.75 261.25 293.70 252.24
  L 293.62 187.32
  Q 293.54 180.68 293.67 174.19
  C 293.87 164.84 281.53 164.19 281.31 174.25
  Q 281.19 180.06 281.43 186.12
  Z
  M 319.91 234.18
  C 317.61 234.83 315.66 234.76 313.64 235.37
  Q 308.30 236.97 302.63 235.76
  A 0.52 0.52 0.0 0 0 302.00 236.27
  L 302.00 243.99
  Q 302.00 244.42 302.44 244.44
  L 308.01 244.70
  C 327.30 249.08 342.56 262.55 346.73 282.11
  Q 347.48 285.66 348.11 289.23
  Q 348.85 314.70 332.15 331.38
  C 321.57 341.96 310.16 346.15 295.25 346.20
  Q 275.27 346.28 255.27 346.24
  Q 254.75 346.24 254.75 346.76
  L 254.75 359.74
  Q 254.75 360.25 255.27 360.25
  Q 275.98 360.24 296.72 360.26
  Q 306.93 360.28 312.68 358.96
  C 351.13 350.15 371.39 307.41 358.88 270.86
  Q 353.22 253.73 337.95 242.04
  Q 328.72 234.98 319.91 234.18
  Z
  M 239.56 237.44
  C 237.41 237.08 235.58 234.89 232.97 234.73
  Q 231.43 234.64 229.86 234.79
  Q 229.25 234.85 229.25 235.46
  L 229.25 246.24
  A 0.50 0.50 0.0 0 0 229.75 246.74
  Q 250.14 246.77 270.56 246.73
  C 278.34 246.72 277.17 235.23 272.06 234.86
  Q 263.91 234.25 249.67 235.13
  Q 249.17 235.16 248.76 235.44
  Q 244.64 238.28 239.56 237.44
  Z
  M 194.02 347.36
  C 194.03 357.46 205.58 357.01 205.65 346.26
  Q 205.93 303.14 205.60 260.29
  A 0.91 0.91 0.0 0 0 204.40 259.44
  Q 194.22 262.95 194.17 273.75
  Q 193.97 310.56 194.02 347.36
  Z
  M 248.73 265.90
  A 6.03 6.03 0.0 0 0 242.70 259.87
  L 242.54 259.87
  A 6.03 6.03 0.0 0 0 236.51 265.90
  L 236.51 369.22
  A 6.03 6.03 0.0 0 0 242.54 375.25
  L 242.70 375.25
  A 6.03 6.03 0.0 0 0 248.73 369.22
  L 248.73 265.90
  Z
  M 266.96 279.07
  C 267.09 275.80 267.81 267.43 266.93 264.82
  C 265.62 260.94 261.81 258.69 257.97 260.63
  C 254.32 262.47 254.80 265.69 254.76 270.05
  Q 254.66 280.88 254.79 291.91
  Q 254.80 292.47 255.36 292.48
  Q 268.79 292.55 282.24 292.51
  C 289.30 292.50 294.39 290.95 293.38 282.74
  Q 293.33 282.32 292.94 282.49
  Q 284.30 286.10 277.28 280.04
  A 0.86 0.85 64.6 0 0 276.73 279.84
  L 267.65 279.80
  A 0.70 0.70 0.0 0 1 266.96 279.07
  Z
  M 302.27 277.31
  C 314.96 285.57 315.97 304.90 300.73 311.03
  Q 297.04 312.51 289.05 312.64
  Q 272.19 312.92 255.78 312.68
  A 1.02 1.02 0.0 0 0 254.75 313.70
  L 254.75 326.45
  Q 254.75 327.04 255.34 327.06
  Q 272.02 327.44 288.69 327.19
  Q 299.77 327.02 305.11 325.29
  C 323.63 319.29 332.34 298.52 324.80 280.73
  Q 318.37 265.53 302.41 260.63
  Q 302.01 260.50 302.00 260.92
  L 301.89 276.61
  A 0.84 0.83 16.9 0 0 302.27 277.31
  Z
  M 211.24 277.73
  C 209.85 294.37 210.75 311.86 210.76 328.60
  C 210.77 329.61 211.13 330.86 211.23 331.91
  L 211.00 332.26
  Q 210.77 332.59 210.77 333.00
  Q 210.71 350.13 210.78 367.28
  C 210.82 378.03 223.04 376.89 222.99 368.75
  Q 222.92 355.49 223.25 342.67
  L 223.20 267.21
  L 223.13 261.35
  A 0.39 0.38 75.8 0 0 222.57 261.01
  Q 217.12 263.84 211.54 261.45
  A 0.46 0.46 0.0 0 0 210.90 261.84
  Q 210.28 269.61 211.24 277.73
  Z
  M 254.97 365.88
  C 253.95 373.48 260.04 376.23 266.53 376.05
  C 280.07 375.68 293.71 376.04 307.26 375.96
  Q 311.98 375.93 313.96 375.03
  C 317.95 373.21 320.88 366.38 316.13 363.64
  A 1.11 1.09 52.0 0 0 315.29 363.53
  Q 308.84 365.31 302.74 365.29
  Q 274.81 365.16 255.51 365.40
  Q 255.03 365.41 254.97 365.88
  Z
  M 159.18 440.48
  Q 156.80 444.65 156.49 449.56
  Q 155.70 452.10 158.06 453.51
  A 1.37 1.37 0.0 0 0 159.97 453.00
  Q 164.05 445.67 169.38 439.34
  A 0.05 0.05 0.0 0 1 169.47 439.39
  C 167.54 444.31 161.66 455.72 167.67 460.24
  C 171.60 463.21 175.90 456.77 177.95 453.46
  Q 178.24 452.99 178.24 453.54
  C 178.19 459.12 181.84 462.54 186.32 457.78
  Q 190.20 453.65 192.45 449.64
  Q 194.85 445.37 193.18 449.98
  C 192.37 452.21 191.87 456.62 192.94 459.53
  C 196.39 468.92 203.32 458.20 205.40 455.03
  Q 205.96 454.18 206.03 455.20
  Q 206.20 457.75 208.65 457.76
  Q 209.28 457.76 209.61 457.23
  Q 216.38 446.19 225.45 436.92
  Q 225.85 436.51 225.69 437.06
  C 223.98 442.87 216.69 452.25 219.34 458.49
  C 220.50 461.20 224.59 464.39 227.34 461.28
  Q 230.73 457.44 233.71 452.49
  Q 232.68 456.55 233.89 458.53
  C 237.41 466.45 243.30 463.46 247.43 458.43
  Q 255.43 448.70 257.68 445.44
  Q 258.50 444.26 257.11 443.63
  A 0.61 0.60 31.2 0 0 256.39 443.80
  C 251.61 449.59 247.67 456.27 241.38 460.13
  A 1.68 1.68 0.0 0 1 238.85 458.41
  L 240.24 450.35
  Q 240.32 449.87 240.78 449.70
  Q 246.64 447.49 250.48 442.26
  C 252.89 438.98 252.26 435.16 247.98 434.21
  C 239.63 432.36 237.26 444.38 233.21 449.02
  Q 229.76 452.97 225.90 456.69
  A 0.79 0.79 0.0 0 1 224.59 455.94
  C 225.34 452.78 225.62 449.48 226.90 446.46
  Q 228.72 442.16 230.65 437.92
  C 232.40 434.09 228.72 430.40 225.29 433.67
  Q 217.97 440.64 212.55 449.02
  Q 211.97 449.93 212.16 448.87
  C 213.09 443.76 214.64 438.11 218.57 434.28
  C 227.92 425.16 234.65 415.49 237.61 402.39
  C 237.95 400.90 237.71 397.46 236.79 396.32
  C 234.22 393.11 229.14 397.03 227.22 399.49
  C 217.38 412.08 210.69 427.89 207.50 443.67
  C 206.18 450.22 203.55 454.30 198.92 458.63
  A 0.51 0.50 53.4 0 1 198.14 458.51
  L 197.97 458.23
  Q 197.79 457.92 197.81 457.57
  Q 198.14 450.13 201.26 443.43
  C 203.52 438.57 197.58 437.57 195.07 441.34
  A 0.40 0.40 0.0 0 1 194.35 441.19
  C 193.82 438.29 191.37 434.44 187.71 436.47
  C 183.73 438.69 182.82 440.66 180.83 444.29
  Q 177.00 451.30 170.52 457.24
  A 0.45 0.45 0.0 0 1 169.76 456.92
  C 169.52 449.93 175.04 444.92 174.50 437.76
  A 2.44 2.44 0.0 0 0 171.88 435.51
  C 167.98 435.81 163.27 443.51 162.00 446.21
  Q 160.81 448.74 161.55 446.04
  Q 162.60 442.26 164.31 438.08
  C 166.18 433.51 161.60 430.20 158.11 434.86
  Q 152.50 442.35 149.02 450.90
  A 0.28 0.27 -32.0 0 1 148.49 450.78
  Q 148.94 445.59 151.95 441.39
  Q 152.31 440.88 151.91 440.39
  L 149.57 437.60
  Q 149.10 437.03 148.69 437.65
  C 146.28 441.32 140.25 455.12 148.05 456.66
  Q 148.59 456.77 148.82 456.27
  C 152.10 449.01 155.37 442.51 160.19 436.15
  Q 160.30 436.00 160.49 436.00
  Q 160.63 436.00 160.78 435.99
  Q 161.07 435.97 160.96 436.24
  L 159.18 440.48
  Z
  M 274.40 450.26
  C 273.87 452.58 273.16 458.25 276.81 457.80
  Q 277.29 457.74 277.55 457.33
  Q 284.34 446.23 293.46 436.92
  Q 293.87 436.50 293.70 437.06
  C 291.67 443.51 281.11 457.43 291.05 462.22
  C 292.57 462.96 294.26 462.60 295.41 461.22
  Q 301.63 453.73 305.96 445.21
  A 0.52 0.51 -11.7 0 0 305.10 444.65
  Q 299.96 450.80 293.95 456.45
  Q 292.99 457.35 292.72 455.70
  A 1.15 0.90 -52.0 0 1 292.72 455.41
  Q 294.00 446.62 298.15 439.34
  C 300.50 435.23 297.61 429.53 293.05 433.90
  Q 285.95 440.70 280.33 449.37
  A 0.22 0.22 0.0 0 1 279.93 449.19
  C 281.10 444.92 282.31 438.79 285.49 435.50
  C 295.45 425.25 302.28 416.56 305.58 402.69
  C 305.96 401.11 305.76 397.49 304.75 396.27
  C 300.20 390.77 291.75 404.10 289.88 407.02
  C 282.67 418.24 278.01 430.55 275.22 445.49
  A 1.03 1.00 -10.7 0 1 274.73 446.19
  L 265.98 451.15
  Q 265.50 451.42 265.37 450.89
  C 264.23 446.07 262.52 439.80 264.43 437.41
  A 1.93 1.92 35.8 0 0 263.97 434.59
  C 260.98 432.66 257.99 437.60 257.90 439.95
  C 257.78 442.94 259.02 449.09 260.22 452.69
  A 1.64 1.63 -24.3 0 1 259.49 454.62
  C 256.46 456.37 249.03 461.27 249.30 465.20
  Q 249.61 469.76 254.82 470.52
  C 265.42 472.07 267.31 463.51 266.24 455.28
  A 0.61 0.61 0.0 0 1 266.51 454.69
  L 273.92 449.92
  Q 274.58 449.50 274.40 450.26
  Z"
/>
<rect fill="#fefdef" x="139.75" y="86.53" width="14.58" height="288.68" rx="7.23"/>
<path fill="#9c9e97" d="
  M 188.71 114.76
  Q 188.38 114.10 188.46 113.06
  A 0.02 0.02 0.0 0 0 188.43 113.04
  L 188.09 113.22
  Q 187.77 113.39 187.45 113.22
  Q 181.16 109.84 174.32 109.71
  Q 173.68 95.92 174.22 92.25
  C 175.12 86.05 183.80 84.68 187.20 89.67
  C 189.95 93.69 188.81 109.49 188.71 114.76
  Z"
/>
<path fill="#5ca2d4" d="
  M 223.17 140.84
  C 218.60 138.25 215.69 135.61 210.78 139.95
  Q 210.72 115.73 210.77 92.00
  C 210.78 86.39 218.62 84.93 221.75 89.20
  C 223.44 91.52 222.97 94.51 223.01 97.32
  Q 223.34 118.96 223.17 140.84
  Z"
/>
<path fill="#5ca2d4" d="
  M 248.70 198.55
  Q 241.94 201.25 238.74 207.63
  Q 238.54 208.03 238.11 208.14
  L 236.50 208.52
  Q 236.23 115.75 236.58 90.93
  Q 236.59 89.69 237.87 88.48
  C 243.45 83.15 248.73 88.81 248.74 94.81
  Q 248.80 146.92 248.70 198.55
  Z"
/>
<rect fill="#9c9e97" x="-6.47" y="-20.87" transform="translate(261.32,107.63) rotate(-0.1)" width="12.94" height="41.74" rx="6.17"/>
<path fill="#9c9e97" d="
  M 283.93 95.09
  C 277.82 98.09 273.99 102.52 280.29 108.84
  C 272.79 110.23 272.80 105.43 272.75 100.00
  C 272.69 94.95 280.56 94.30 283.93 95.09
  Z"
/>
<path fill="#fefdef" d="
  M 311.07 230.70
  C 305.67 228.32 302.96 223.27 307.85 218.25
  Q 338.37 211.00 346.78 180.73
  C 356.22 146.70 330.02 111.39 294.93 109.48
  Q 287.30 109.06 280.29 108.84
  C 273.99 102.52 277.82 98.09 283.93 95.09
  C 328.41 91.48 364.87 125.41 363.17 170.29
  C 362.11 198.29 343.61 223.98 315.75 230.99
  Q 314.12 231.40 311.07 230.70
  Z"
/>
<path fill="#5ca2d4" d="
  M 204.48 107.56
  Q 205.72 108.21 205.72 109.61
  L 205.77 181.77
  Q 205.77 183.10 204.71 182.29
  C 194.63 174.53 193.82 166.57 193.77 153.25
  Q 193.71 134.13 193.77 115.00
  C 193.80 108.36 197.60 103.88 204.48 107.56
  Z"
/>
<path fill="#c2c1b5" d="
  M 174.32 109.71
  Q 181.16 109.84 187.45 113.22
  Q 187.77 113.39 188.09 113.22
  L 188.43 113.04
  A 0.02 0.02 0.0 0 1 188.46 113.06
  Q 188.38 114.10 188.71 114.76
  L 188.68 132.13
  Q 182.98 126.97 174.24 126.30
  L 174.32 109.71
  Z"
/>
<path fill="#fefdef" d="
  M 174.24 126.30
  Q 182.98 126.97 188.68 132.13
  Q 189.39 239.00 188.57 345.45
  Q 181.43 346.76 174.32 352.52
  L 174.24 126.30
  Z"
/>
<path fill="#9c9e97" d="
  M 255.05 133.33
  Q 261.73 136.19 267.67 133.52
  Q 269.98 132.48 271.68 132.36
  Q 284.87 131.46 298.02 132.33
  C 318.20 133.66 330.61 153.75 327.94 172.42
  C 325.96 186.24 316.23 197.53 302.53 201.12
  Q 302.01 201.25 302.00 200.71
  L 301.67 185.35
  Q 301.66 184.75 302.17 184.43
  C 321.24 172.47 312.66 146.28 290.56 146.07
  Q 273.29 145.91 255.53 146.03
  A 0.77 0.77 0.0 0 1 254.75 145.26
  L 254.75 133.53
  Q 254.75 133.21 255.05 133.33
  Z"
/>
<path fill="#1d3d51" d="
  M 223.17 140.84
  L 223.21 148.39
  A 0.76 0.76 0.0 0 1 221.86 148.87
  C 218.72 144.98 215.25 146.32 211.36 148.18
  Q 210.78 148.46 210.78 147.82
  L 210.78 139.95
  C 215.69 135.61 218.60 138.25 223.17 140.84
  Z"
/>
<rect fill="#fefdef" x="210.95" y="150.80" width="12.12" height="105.52" rx="5.96"/>
<rect fill="#5ca2d4" x="-6.26" y="-31.92" transform="translate(261.13,184.18) rotate(-0.1)" width="12.52" height="63.84" rx="5.85"/>
<path fill="#1d3d51" d="
  M 293.62 187.32
  Q 288.86 179.90 281.43 186.12
  Q 281.19 180.06 281.31 174.25
  C 281.53 164.19 293.87 164.84 293.67 174.19
  Q 293.54 180.68 293.62 187.32
  Z"
/>
<path fill="#5ca2d4" d="
  M 293.62 187.32
  L 293.70 252.24
  Q 293.72 245.61 289.31 239.44
  Q 285.09 233.53 281.51 230.30
  L 281.43 186.12
  Q 288.86 179.90 293.62 187.32
  Z"
/>
<path fill="#9c9e97" d="
  M 248.70 198.55
  Q 249.02 212.84 248.45 226.65
  C 248.20 232.65 240.00 233.24 237.56 229.11
  C 235.37 225.39 236.50 213.19 236.50 208.52
  L 238.11 208.14
  Q 238.54 208.03 238.74 207.63
  Q 241.94 201.25 248.70 198.55
  Z"
/>
<path fill="#9c9e97" d="
  M 307.85 218.25
  C 302.96 223.27 305.67 228.32 311.07 230.70
  Q 307.22 232.08 303.72 230.29
  A 1.31 1.30 -88.7 0 1 303.11 229.65
  Q 298.74 219.41 307.85 218.25
  Z"
/>
<path fill="#fefdef" d="
  M 293.70 252.24
  Q 293.75 261.25 293.51 270.27
  C 293.39 274.70 292.01 278.38 287.05 278.15
  C 281.81 277.90 280.88 271.97 281.19 267.47
  C 282.00 255.36 281.50 242.82 281.51 230.30
  Q 285.09 233.53 289.31 239.44
  Q 293.72 245.61 293.70 252.24
  Z"
/>
<path fill="#9c9e97" d="
  M 358.88 270.86
  Q 356.52 282.51 348.11 289.23
  Q 347.48 285.66 346.73 282.11
  C 342.56 262.55 327.30 249.08 308.01 244.70
  Q 311.93 238.69 319.91 234.18
  Q 328.72 234.98 337.95 242.04
  Q 353.22 253.73 358.88 270.86
  Z"
/>
<path fill="#1d3d51" d="
  M 319.91 234.18
  Q 311.93 238.69 308.01 244.70
  L 302.44 244.44
  Q 302.00 244.42 302.00 243.99
  L 302.00 236.27
  A 0.52 0.52 0.0 0 1 302.63 235.76
  Q 308.30 236.97 313.64 235.37
  C 315.66 234.76 317.61 234.83 319.91 234.18
  Z"
/>
<path fill="#5ca2d4" d="
  M 239.56 237.44
  Q 244.64 238.28 248.76 235.44
  Q 249.17 235.16 249.67 235.13
  Q 263.91 234.25 272.06 234.86
  C 277.17 235.23 278.34 246.72 270.56 246.73
  Q 250.14 246.77 229.75 246.74
  A 0.50 0.50 0.0 0 1 229.25 246.24
  L 229.25 235.46
  Q 229.25 234.85 229.86 234.79
  Q 231.43 234.64 232.97 234.73
  C 235.58 234.89 237.41 237.08 239.56 237.44
  Z"
/>
<path fill="#1d3d51" d="
  M 205.65 346.26
  C 205.58 357.01 194.03 357.46 194.02 347.36
  Q 193.97 310.56 194.17 273.75
  Q 194.22 262.95 204.40 259.44
  A 0.91 0.91 0.0 0 1 205.60 260.29
  Q 205.93 303.14 205.65 346.26
  Z"
/>
<rect fill="#fefdef" x="236.51" y="259.87" width="12.22" height="115.38" rx="6.03"/>
<path fill="#5ca2d4" d="
  M 267.65 279.80
  L 276.73 279.84
  A 0.86 0.85 64.6 0 1 277.28 280.04
  Q 284.30 286.10 292.94 282.49
  Q 293.33 282.32 293.38 282.74
  C 294.39 290.95 289.30 292.50 282.24 292.51
  Q 268.79 292.55 255.36 292.48
  Q 254.80 292.47 254.79 291.91
  Q 254.66 280.88 254.76 270.05
  C 254.80 265.69 254.32 262.47 257.97 260.63
  C 261.81 258.69 265.62 260.94 266.93 264.82
  C 267.81 267.43 267.09 275.80 266.96 279.07
  A 0.70 0.70 0.0 0 0 267.65 279.80
  Z"
/>
<path fill="#9c9e97" d="
  M 302.27 277.31
  A 0.84 0.83 16.9 0 1 301.89 276.61
  L 302.00 260.92
  Q 302.01 260.50 302.41 260.63
  Q 318.37 265.53 324.80 280.73
  C 332.34 298.52 323.63 319.29 305.11 325.29
  Q 299.77 327.02 288.69 327.19
  Q 272.02 327.44 255.34 327.06
  Q 254.75 327.04 254.75 326.45
  L 254.75 313.70
  A 1.02 1.02 0.0 0 1 255.78 312.68
  Q 272.19 312.92 289.05 312.64
  Q 297.04 312.51 300.73 311.03
  C 315.97 304.90 314.96 285.57 302.27 277.31
  Z"
/>
<path fill="#1d3d51" d="
  M 223.20 267.21
  Q 215.07 268.89 211.24 277.73
  Q 210.28 269.61 210.90 261.84
  A 0.46 0.46 0.0 0 1 211.54 261.45
  Q 217.12 263.84 222.57 261.01
  A 0.39 0.38 75.8 0 1 223.13 261.35
  L 223.20 267.21
  Z"
/>
<path fill="#5ca2d4" d="
  M 223.20 267.21
  L 223.25 342.67
  Q 214.67 340.22 211.23 331.91
  C 211.13 330.86 210.77 329.61 210.76 328.60
  C 210.75 311.86 209.85 294.37 211.24 277.73
  Q 215.07 268.89 223.20 267.21
  Z"
/>
<path fill="#fefdef" d="
  M 358.88 270.86
  C 371.39 307.41 351.13 350.15 312.68 358.96
  Q 306.93 360.28 296.72 360.26
  Q 275.98 360.24 255.27 360.25
  Q 254.75 360.25 254.75 359.74
  L 254.75 346.76
  Q 254.75 346.24 255.27 346.24
  Q 275.27 346.28 295.25 346.20
  C 310.16 346.15 321.57 341.96 332.15 331.38
  Q 348.85 314.70 348.11 289.23
  Q 356.52 282.51 358.88 270.86
  Z"
/>
<path fill="#1d3d51" d="
  M 211.23 331.91
  Q 214.67 340.22 223.25 342.67
  Q 222.92 355.49 222.99 368.75
  C 223.04 376.89 210.82 378.03 210.78 367.28
  Q 210.71 350.13 210.77 333.00
  Q 210.77 332.59 211.00 332.26
  L 211.23 331.91
  Z"
/>
<path fill="#c2c1b5" d="
  M 188.57 345.45
  C 188.52 351.22 189.88 367.54 187.38 371.95
  C 185.02 376.11 177.80 376.34 175.32 372.10
  Q 174.22 370.21 174.17 366.14
  Q 174.09 358.70 174.32 352.52
  Q 181.43 346.76 188.57 345.45
  Z"
/>
<path fill="#1d3d51" d="
  M 266.53 376.05
  C 260.04 376.23 253.95 373.48 254.97 365.88
  Q 255.03 365.41 255.51 365.40
  Q 274.81 365.16 302.74 365.29
  Q 308.84 365.31 315.29 363.53
  A 1.11 1.09 52.0 0 1 316.13 363.64
  C 320.88 366.38 317.95 373.21 313.96 375.03
  Q 311.98 375.93 307.26 375.96
  C 293.71 376.04 280.07 375.68 266.53 376.05
  Z"
/>
<path fill="#ffffff" d="
  M 233.89 458.53
  L 235.68 450.38
  A 0.21 0.21 0.0 0 0 235.28 450.28
  Q 234.79 451.93 233.71 452.49
  Q 230.73 457.44 227.34 461.28
  C 224.59 464.39 220.50 461.20 219.34 458.49
  C 216.69 452.25 223.98 442.87 225.69 437.06
  Q 225.85 436.51 225.45 436.92
  Q 216.38 446.19 209.61 457.23
  Q 209.28 457.76 208.65 457.76
  Q 206.20 457.75 206.03 455.20
  Q 205.96 454.18 205.40 455.03
  C 203.32 458.20 196.39 468.92 192.94 459.53
  C 191.87 456.62 192.37 452.21 193.18 449.98
  Q 194.85 445.37 192.45 449.64
  Q 190.20 453.65 186.32 457.78
  C 181.84 462.54 178.19 459.12 178.24 453.54
  Q 178.24 452.99 177.95 453.46
  C 175.90 456.77 171.60 463.21 167.67 460.24
  C 161.66 455.72 167.54 444.31 169.47 439.39
  A 0.05 0.05 0.0 0 0 169.38 439.34
  Q 164.05 445.67 159.97 453.00
  A 1.37 1.37 0.0 0 1 158.06 453.51
  Q 155.70 452.10 156.49 449.56
  Q 157.93 448.31 158.21 446.36
  Q 158.95 445.13 158.95 443.76
  Q 160.59 440.99 159.18 440.48
  L 160.96 436.24
  Q 161.07 435.97 160.78 435.99
  Q 160.63 436.00 160.49 436.00
  Q 160.30 436.00 160.19 436.15
  C 155.37 442.51 152.10 449.01 148.82 456.27
  Q 148.59 456.77 148.05 456.66
  C 140.25 455.12 146.28 441.32 148.69 437.65
  Q 149.10 437.03 149.57 437.60
  L 151.91 440.39
  Q 152.31 440.88 151.95 441.39
  Q 148.94 445.59 148.49 450.78
  A 0.28 0.27 -32.0 0 0 149.02 450.90
  Q 152.50 442.35 158.11 434.86
  C 161.60 430.20 166.18 433.51 164.31 438.08
  Q 162.60 442.26 161.55 446.04
  Q 160.81 448.74 162.00 446.21
  C 163.27 443.51 167.98 435.81 171.88 435.51
  A 2.44 2.44 0.0 0 1 174.50 437.76
  C 175.04 444.92 169.52 449.93 169.76 456.92
  A 0.45 0.45 0.0 0 0 170.52 457.24
  Q 177.00 451.30 180.83 444.29
  C 182.82 440.66 183.73 438.69 187.71 436.47
  C 191.37 434.44 193.82 438.29 194.35 441.19
  A 0.40 0.40 0.0 0 0 195.07 441.34
  C 197.58 437.57 203.52 438.57 201.26 443.43
  Q 198.14 450.13 197.81 457.57
  Q 197.79 457.92 197.97 458.23
  L 198.14 458.51
  A 0.51 0.50 53.4 0 0 198.92 458.63
  C 203.55 454.30 206.18 450.22 207.50 443.67
  C 210.69 427.89 217.38 412.08 227.22 399.49
  C 229.14 397.03 234.22 393.11 236.79 396.32
  C 237.71 397.46 237.95 400.90 237.61 402.39
  C 234.65 415.49 227.92 425.16 218.57 434.28
  C 214.64 438.11 213.09 443.76 212.16 448.87
  Q 211.97 449.93 212.55 449.02
  Q 217.97 440.64 225.29 433.67
  C 228.72 430.40 232.40 434.09 230.65 437.92
  Q 228.72 442.16 226.90 446.46
  C 225.62 449.48 225.34 452.78 224.59 455.94
  A 0.79 0.79 0.0 0 0 225.90 456.69
  Q 229.76 452.97 233.21 449.02
  C 237.26 444.38 239.63 432.36 247.98 434.21
  C 252.26 435.16 252.89 438.98 250.48 442.26
  Q 246.64 447.49 240.78 449.70
  Q 240.32 449.87 240.24 450.35
  L 238.85 458.41
  A 1.68 1.68 0.0 0 0 241.38 460.13
  C 247.67 456.27 251.61 449.59 256.39 443.80
  A 0.61 0.60 31.2 0 1 257.11 443.63
  Q 258.50 444.26 257.68 445.44
  Q 255.43 448.70 247.43 458.43
  C 243.30 463.46 237.41 466.45 233.89 458.53
  Z
  M 233.17 399.93
  Q 224.10 414.17 218.30 430.05
  Q 217.85 431.29 218.75 430.32
  Q 229.75 418.43 234.88 402.30
  Q 235.06 401.75 235.09 401.22
  Q 235.14 400.32 235.08 400.10
  Q 234.41 397.98 233.17 399.93
  Z
  M 229.30 403.33
  C 223.11 414.76 218.46 422.84 216.17 432.16
  Q 215.76 433.82 216.35 432.21
  Q 221.60 418.12 229.35 404.29
  Q 229.64 403.77 229.48 403.34
  Q 229.41 403.14 229.30 403.33
  Z
  M 246.71 436.58
  Q 243.57 440.95 241.76 446.04
  Q 241.52 446.70 242.13 446.34
  C 245.21 444.48 249.38 440.93 248.18 436.83
  A 0.83 0.83 0.0 0 0 246.71 436.58
  Z
  M 190.77 438.68
  C 186.86 439.76 184.08 451.22 183.58 454.84
  A 0.62 0.61 -22.6 0 0 184.68 455.29
  L 192.37 445.20
  Q 192.70 444.77 192.59 444.24
  L 191.56 439.17
  A 0.63 0.63 0.0 0 0 190.77 438.68
  Z"
/>
<path fill="#ffffff" d="
  M 273.92 449.92
  L 266.51 454.69
  A 0.61 0.61 0.0 0 0 266.24 455.28
  C 267.31 463.51 265.42 472.07 254.82 470.52
  Q 249.61 469.76 249.30 465.20
  C 249.03 461.27 256.46 456.37 259.49 454.62
  A 1.64 1.63 -24.3 0 0 260.22 452.69
  C 259.02 449.09 257.78 442.94 257.90 439.95
  C 257.99 437.60 260.98 432.66 263.97 434.59
  A 1.93 1.92 35.8 0 1 264.43 437.41
  C 262.52 439.80 264.23 446.07 265.37 450.89
  Q 265.50 451.42 265.98 451.15
  L 274.73 446.19
  A 1.03 1.00 -10.7 0 0 275.22 445.49
  C 278.01 430.55 282.67 418.24 289.88 407.02
  C 291.75 404.10 300.20 390.77 304.75 396.27
  C 305.76 397.49 305.96 401.11 305.58 402.69
  C 302.28 416.56 295.45 425.25 285.49 435.50
  C 282.31 438.79 281.10 444.92 279.93 449.19
  A 0.22 0.22 0.0 0 0 280.33 449.37
  Q 285.95 440.70 293.05 433.90
  C 297.61 429.53 300.50 435.23 298.15 439.34
  Q 294.00 446.62 292.72 455.41
  A 1.15 0.90 -52.0 0 0 292.72 455.70
  Q 292.99 457.35 293.95 456.45
  Q 299.96 450.80 305.10 444.65
  A 0.52 0.51 -11.7 0 1 305.96 445.21
  Q 301.63 453.73 295.41 461.22
  C 294.26 462.60 292.57 462.96 291.05 462.22
  C 281.11 457.43 291.67 443.51 293.70 437.06
  Q 293.87 436.50 293.46 436.92
  Q 284.34 446.23 277.55 457.33
  Q 277.29 457.74 276.81 457.80
  C 273.16 458.25 273.87 452.58 274.40 450.26
  Q 274.58 449.50 273.92 449.92
  Z
  M 301.37 399.65
  Q 292.22 413.95 286.35 429.90
  Q 285.82 431.33 286.85 430.21
  Q 297.78 418.33 302.91 402.12
  Q 303.11 401.49 303.14 400.93
  Q 303.19 400.00 303.02 399.71
  Q 302.22 398.33 301.37 399.65
  Z
  M 297.49 402.75
  C 292.61 412.46 286.79 422.07 284.06 432.45
  Q 283.59 434.20 284.23 432.51
  Q 289.85 417.57 297.68 403.65
  Q 297.83 403.37 297.78 403.06
  Q 297.75 402.90 297.75 402.75
  Q 297.77 402.18 297.49 402.75
  Z
  M 253.58 466.84
  C 258.68 467.44 260.73 462.45 260.54 458.12
  Q 260.52 457.65 260.11 457.88
  Q 255.63 460.39 252.56 464.42
  A 1.51 1.51 0.0 0 0 253.58 466.84
  Z
  M 260.96 468.81
  Q 262.26 468.45 263.46 466.43
  A 0.10 0.10 0.0 0 0 263.30 466.31
  Q 262.23 467.56 260.75 468.24
  Q 257.37 469.81 260.96 468.81
  Z"
/>
<path fill="#001220" d="
  M 233.17 399.93
  Q 234.41 397.98 235.08 400.10
  Q 235.14 400.32 235.09 401.22
  Q 235.06 401.75 234.88 402.30
  Q 229.75 418.43 218.75 430.32
  Q 217.85 431.29 218.30 430.05
  Q 224.10 414.17 233.17 399.93
  Z"
/>
<path fill="#001220" d="
  M 301.37 399.65
  Q 302.22 398.33 303.02 399.71
  Q 303.19 400.00 303.14 400.93
  Q 303.11 401.49 302.91 402.12
  Q 297.78 418.33 286.85 430.21
  Q 285.82 431.33 286.35 429.90
  Q 292.22 413.95 301.37 399.65
  Z"
/>
<path fill="#001220" d="
  M 229.48 403.34
  Q 229.64 403.77 229.35 404.29
  Q 221.60 418.12 216.35 432.21
  Q 215.76 433.82 216.17 432.16
  C 218.46 422.84 223.11 414.76 229.30 403.33
  Q 229.41 403.14 229.48 403.34
  Z"
/>
<path fill="#001220" d="
  M 284.06 432.45
  C 286.79 422.07 292.61 412.46 297.49 402.75
  Q 297.77 402.18 297.75 402.75
  Q 297.75 402.90 297.78 403.06
  Q 297.83 403.37 297.68 403.65
  Q 289.85 417.57 284.23 432.51
  Q 283.59 434.20 284.06 432.45
  Z"
/>
<path fill="#001220" d="
  M 246.71 436.58
  A 0.83 0.83 0.0 0 1 248.18 436.83
  C 249.38 440.93 245.21 444.48 242.13 446.34
  Q 241.52 446.70 241.76 446.04
  Q 243.57 440.95 246.71 436.58
  Z"
/>
<path fill="#001220" d="
  M 183.58 454.84
  C 184.08 451.22 186.86 439.76 190.77 438.68
  A 0.63 0.63 0.0 0 1 191.56 439.17
  L 192.59 444.24
  Q 192.70 444.77 192.37 445.20
  L 184.68 455.29
  A 0.62 0.61 -22.6 0 1 183.58 454.84
  Z"
/>
<path fill="#c2c1b5" d="
  M 159.18 440.48
  Q 160.59 440.99 158.95 443.76
  Q 157.95 444.37 158.21 446.36
  Q 157.93 448.31 156.49 449.56
  Q 156.80 444.65 159.18 440.48
  Z"
/>
<path fill="#9c9e97" d="
  M 158.95 443.76
  Q 158.95 445.13 158.21 446.36
  Q 157.95 444.37 158.95 443.76
  Z"
/>
<path fill="#9c9e97" d="
  M 233.89 458.53
  Q 232.68 456.55 233.71 452.49
  Q 234.79 451.93 235.28 450.28
  A 0.21 0.21 0.0 0 1 235.68 450.38
  L 233.89 458.53
  Z"
/>
<path fill="#001220" d="
  M 253.58 466.84
  A 1.51 1.51 0.0 0 1 252.56 464.42
  Q 255.63 460.39 260.11 457.88
  Q 260.52 457.65 260.54 458.12
  C 260.73 462.45 258.68 467.44 253.58 466.84
  Z"
/>
<path fill="#9c9e97" d="
  M 260.96 468.81
  Q 257.37 469.81 260.75 468.24
  Q 262.23 467.56 263.30 466.31
  A 0.10 0.10 0.0 0 1 263.46 466.43
  Q 262.26 468.45 260.96 468.81
  Z"
/>
</svg>
